<svg width="66" height="56" viewBox="0 0 66 56" fill="none" xmlns="http://www.w3.org/2000/svg" xmlns:xlink="http://www.w3.org/1999/xlink">
<path d="M59.5,0.5L4.5,0.5C3.174,0.5 1.902,1.027 0.964,1.964C0.027,2.902 -0.5,4.174 -0.5,5.5L-0.5,50.5C-0.5,51.826 0.027,53.098 0.964,54.036C1.902,54.973 3.174,55.5 4.5,55.5L59.5,55.5C60.826,55.5 62.098,54.973 63.036,54.036C63.973,53.098 64.5,51.826 64.5,50.5L64.5,5.5C64.5,4.174 63.973,2.902 63.036,1.964C62.098,1.027 60.826,0.5 59.5,0.5ZM59.5,5.5L59.5,37.609L51.353,29.466C50.889,29.001 50.338,28.633 49.731,28.381C49.124,28.13 48.474,28.001 47.817,28.001C47.16,28.001 46.51,28.13 45.904,28.381C45.297,28.633 44.746,29.001 44.281,29.466L38.031,35.716L24.281,21.966C23.344,21.029 22.072,20.502 20.747,20.502C19.421,20.502 18.15,21.029 17.213,21.966L4.5,34.678L4.5,5.5L59.5,5.5ZM4.5,41.75L20.75,25.5L45.75,50.5L4.5,50.5L4.5,41.75ZM59.5,50.5L52.822,50.5L41.572,39.25L47.822,33L59.5,44.681L59.5,50.5ZM37,19.25C37,18.508 37.22,17.783 37.632,17.167C38.044,16.55 38.63,16.069 39.315,15.785C40,15.502 40.754,15.427 41.482,15.572C42.209,15.717 42.877,16.074 43.402,16.598C43.926,17.123 44.283,17.791 44.428,18.518C44.573,19.246 44.498,20 44.215,20.685C43.931,21.37 43.45,21.956 42.833,22.368C42.217,22.78 41.492,23 40.75,23C39.755,23 38.802,22.605 38.098,21.902C37.395,21.198 37,20.245 37,19.25Z" fill="#633CFF"/>
</svg>
