<svg width="54" height="54" viewBox="0 0 54 54" fill="none" xmlns="http://www.w3.org/2000/svg" xmlns:xlink="http://www.w3.org/1999/xlink">
<path d="M3.237,48.76C7.147,52.667 13.429,52.667 26,52.667C38.571,52.667 44.856,52.667 48.76,48.76C52.667,44.859 52.667,38.571 52.667,26C52.667,13.429 52.667,7.144 48.76,3.237C44.859,-0.667 38.571,-0.667 26,-0.667C13.429,-0.667 7.144,-0.667 3.237,3.237C-0.667,7.147 -0.667,13.429 -0.667,26C-0.667,38.571 -0.667,44.856 3.237,48.76ZM19.333,17.333C17.619,17.333 15.944,17.842 14.519,18.794C13.093,19.746 11.982,21.1 11.327,22.683C10.671,24.267 10.499,26.01 10.833,27.691C11.168,29.372 11.993,30.916 13.205,32.128C14.417,33.34 15.962,34.166 17.643,34.5C19.324,34.835 21.066,34.663 22.65,34.007C24.234,33.351 25.587,32.24 26.539,30.815C27.492,29.39 28,27.714 28,26C28,25.47 28.211,24.961 28.586,24.586C28.961,24.211 29.47,24 30,24C30.53,24 31.039,24.211 31.414,24.586C31.789,24.961 32,25.47 32,26C32,28.505 31.257,30.954 29.865,33.037C28.474,35.12 26.495,36.744 24.181,37.703C21.866,38.661 19.319,38.912 16.862,38.423C14.405,37.935 12.148,36.728 10.377,34.957C8.605,33.185 7.399,30.928 6.91,28.471C6.421,26.014 6.672,23.467 7.631,21.153C8.59,18.838 10.213,16.86 12.296,15.468C14.379,14.076 16.828,13.333 19.333,13.333C19.864,13.333 20.373,13.544 20.748,13.919C21.123,14.294 21.333,14.803 21.333,15.333C21.333,15.864 21.123,16.373 20.748,16.748C20.373,17.123 19.864,17.333 19.333,17.333ZM41.333,26C41.333,28.299 40.42,30.503 38.795,32.128C37.17,33.754 34.965,34.667 32.667,34.667C32.136,34.667 31.628,34.877 31.253,35.253C30.877,35.628 30.667,36.136 30.667,36.667C30.667,37.197 30.877,37.706 31.253,38.081C31.628,38.456 32.136,38.667 32.667,38.667C35.172,38.667 37.621,37.924 39.704,36.532C41.787,35.14 43.41,33.162 44.369,30.847C45.328,28.533 45.579,25.986 45.09,23.529C44.601,21.072 43.395,18.815 41.623,17.043C39.852,15.272 37.595,14.066 35.138,13.577C32.681,13.088 30.134,13.339 27.819,14.298C25.505,15.256 23.527,16.88 22.135,18.963C20.743,21.046 20,23.495 20,26C20,26.53 20.211,27.039 20.586,27.414C20.961,27.789 21.47,28 22,28C22.53,28 23.039,27.789 23.414,27.414C23.789,27.039 24,26.53 24,26C24,23.702 24.913,21.497 26.538,19.872C28.164,18.246 30.368,17.333 32.667,17.333C34.965,17.333 37.17,18.246 38.795,19.872C40.42,21.497 41.333,23.702 41.333,26Z" clip-rule="evenodd" fill-rule="evenodd" fill="#633CFF"/>
</svg>
