<svg width="32" height="32" viewBox="0 0 32 32" fill="none" xmlns="http://www.w3.org/2000/svg" xmlns:xlink="http://www.w3.org/1999/xlink">
<path d="M16.308,25.301C16.483,25.476 16.621,25.683 16.716,25.911C16.811,26.138 16.859,26.383 16.859,26.63C16.859,26.876 16.811,27.121 16.716,27.349C16.621,27.577 16.483,27.784 16.308,27.958L15.38,28.886C13.621,30.645 11.236,31.633 8.749,31.633C6.261,31.633 3.876,30.645 2.117,28.886C0.359,27.127 -0.629,24.742 -0.629,22.255C-0.629,19.767 0.359,17.382 2.117,15.623L5.886,11.856C7.576,10.162 9.85,9.178 12.241,9.106C14.633,9.034 16.961,9.879 18.75,11.469C18.935,11.633 19.085,11.832 19.193,12.054C19.301,12.276 19.364,12.518 19.378,12.764C19.393,13.011 19.359,13.258 19.278,13.492C19.197,13.725 19.071,13.94 18.906,14.125C18.742,14.31 18.543,14.46 18.321,14.568C18.099,14.676 17.857,14.739 17.611,14.753C17.364,14.768 17.117,14.733 16.883,14.653C16.65,14.572 16.435,14.445 16.25,14.281C15.178,13.329 13.781,12.822 12.348,12.864C10.914,12.907 9.55,13.496 8.536,14.511L4.77,18.273C3.715,19.328 3.123,20.759 3.123,22.251C3.123,23.744 3.715,25.175 4.77,26.23C5.826,27.285 7.257,27.877 8.749,27.877C10.241,27.877 11.672,27.285 12.727,26.23L13.655,25.301C13.829,25.127 14.036,24.989 14.263,24.894C14.491,24.8 14.735,24.752 14.981,24.752C15.228,24.752 15.472,24.8 15.699,24.894C15.927,24.989 16.134,25.127 16.308,25.301ZM27.883,3.114C26.123,1.358 23.738,0.372 21.252,0.372C18.765,0.372 16.381,1.358 14.62,3.114L13.692,4.042C13.34,4.394 13.142,4.872 13.142,5.37C13.142,5.868 13.34,6.346 13.692,6.698C14.045,7.051 14.522,7.249 15.02,7.249C15.519,7.249 15.996,7.051 16.349,6.698L17.277,5.77C18.332,4.715 19.763,4.122 21.255,4.122C22.747,4.122 24.178,4.715 25.233,5.77C26.288,6.825 26.881,8.256 26.881,9.748C26.881,11.24 26.288,12.671 25.233,13.727L21.466,17.495C20.451,18.51 19.087,19.098 17.652,19.139C16.218,19.181 14.822,18.673 13.75,17.719C13.566,17.555 13.35,17.428 13.117,17.347C12.883,17.266 12.636,17.232 12.39,17.247C12.143,17.261 11.902,17.324 11.679,17.432C11.457,17.54 11.258,17.69 11.094,17.875C10.93,18.06 10.804,18.275 10.723,18.508C10.642,18.742 10.607,18.989 10.622,19.235C10.636,19.482 10.699,19.723 10.807,19.946C10.915,20.168 11.066,20.367 11.25,20.531C13.038,22.12 15.365,22.966 17.755,22.895C20.146,22.825 22.419,21.843 24.11,20.152L27.878,16.384C29.636,14.625 30.624,12.239 30.625,9.752C30.626,7.264 29.64,4.878 27.883,3.117L27.883,3.114Z" fill="#633CFF"/>
</svg>
