<svg width="24" height="26" viewBox="0 0 24 26" fill="none" xmlns="http://www.w3.org/2000/svg" xmlns:xlink="http://www.w3.org/1999/xlink">
<path d="M22,8L18,8L18,5C18,3.409 17.368,1.883 16.243,0.757C15.117,-0.368 13.591,-1 12,-1C10.409,-1 8.883,-0.368 7.757,0.757C6.632,1.883 6,3.409 6,5L6,8L2,8C1.47,8 0.961,8.211 0.586,8.586C0.211,8.961 0,9.47 0,10L0,24C0,24.53 0.211,25.039 0.586,25.414C0.961,25.789 1.47,26 2,26L22,26C22.53,26 23.039,25.789 23.414,25.414C23.789,25.039 24,24.53 24,24L24,10C24,9.47 23.789,8.961 23.414,8.586C23.039,8.211 22.53,8 22,8ZM13,17.829L13,21C13,21.265 12.895,21.52 12.707,21.707C12.52,21.895 12.265,22 12,22C11.735,22 11.48,21.895 11.293,21.707C11.105,21.52 11,21.265 11,21L11,17.829C10.333,17.593 9.77,17.129 9.412,16.518C9.054,15.908 8.924,15.191 9.043,14.493C9.163,13.796 9.525,13.163 10.066,12.707C10.607,12.251 11.292,12 12,12C12.708,12 13.393,12.251 13.934,12.707C14.475,13.163 14.837,13.796 14.957,14.493C15.076,15.191 14.946,15.908 14.588,16.518C14.23,17.129 13.667,17.593 13,17.829ZM16,8L8,8L8,5C8,3.939 8.421,2.922 9.172,2.172C9.922,1.421 10.939,1 12,1C13.061,1 14.078,1.421 14.828,2.172C15.579,2.922 16,3.939 16,5L16,8Z" fill="#737373"/>
</svg>
