<svg width="68" height="68" viewBox="0 0 68 68" fill="none" xmlns="http://www.w3.org/2000/svg" xmlns:xlink="http://www.w3.org/1999/xlink">
<path d="M5.047,62.45C9.934,67.333 17.787,67.333 33.5,67.333C49.214,67.333 57.07,67.333 61.95,62.45C66.834,57.573 66.834,49.713 66.834,34C66.834,18.287 66.834,10.43 61.95,5.547C57.074,0.667 49.214,0.667 33.5,0.667C17.787,0.667 9.93,0.667 5.047,5.547C0.167,10.433 0.167,18.287 0.167,34C0.167,49.713 0.167,57.57 5.047,62.45ZM25.167,23.167C23.024,23.167 20.93,23.802 19.148,24.992C17.367,26.183 15.978,27.875 15.158,29.854C14.338,31.834 14.124,34.012 14.542,36.113C14.96,38.215 15.992,40.145 17.507,41.66C19.022,43.175 20.952,44.207 23.054,44.625C25.155,45.043 27.333,44.829 29.313,44.009C31.292,43.189 32.984,41.8 34.175,40.019C35.365,38.237 36,36.143 36,34C36,33.337 36.264,32.701 36.733,32.232C37.201,31.763 37.837,31.5 38.5,31.5C39.163,31.5 39.799,31.763 40.268,32.232C40.737,32.701 41,33.337 41,34C41,37.131 40.072,40.193 38.332,42.796C36.592,45.4 34.119,47.43 31.226,48.628C28.333,49.826 25.149,50.14 22.078,49.529C19.007,48.918 16.185,47.41 13.971,45.196C11.757,42.981 10.249,40.16 9.638,37.089C9.027,34.017 9.341,30.834 10.539,27.941C11.737,25.048 13.767,22.575 16.37,20.835C18.974,19.095 22.035,18.167 25.167,18.167C25.83,18.167 26.466,18.43 26.935,18.899C27.404,19.368 27.667,20.004 27.667,20.667C27.667,21.33 27.404,21.966 26.935,22.434C26.466,22.903 25.83,23.167 25.167,23.167ZM52.667,34C52.667,36.873 51.526,39.629 49.494,41.66C47.462,43.692 44.707,44.833 41.834,44.833C41.171,44.833 40.535,45.097 40.066,45.565C39.597,46.034 39.334,46.67 39.334,47.333C39.334,47.996 39.597,48.632 40.066,49.101C40.535,49.57 41.171,49.833 41.834,49.833C44.965,49.833 48.026,48.905 50.63,47.165C53.234,45.425 55.263,42.952 56.462,40.059C57.66,37.166 57.974,33.982 57.363,30.911C56.752,27.84 55.244,25.018 53.03,22.804C50.815,20.59 47.994,19.082 44.923,18.471C41.851,17.86 38.668,18.173 35.775,19.372C32.881,20.57 30.409,22.6 28.669,25.203C26.929,27.807 26,30.868 26,34C26,34.663 26.264,35.299 26.733,35.768C27.201,36.237 27.837,36.5 28.5,36.5C29.163,36.5 29.799,36.237 30.268,35.768C30.737,35.299 31,34.663 31,34C31,31.127 32.142,28.371 34.173,26.34C36.205,24.308 38.96,23.167 41.834,23.167C44.707,23.167 47.462,24.308 49.494,26.34C51.526,28.371 52.667,31.127 52.667,34Z" clip-rule="evenodd" fill-rule="evenodd" fill="#633CFF"/>
</svg>
