<svg width="28" height="20" viewBox="0 0 28 20" fill="none" xmlns="http://www.w3.org/2000/svg" xmlns:xlink="http://www.w3.org/1999/xlink">
<path d="M26,0L2,0C1.735,0 1.48,0.105 1.293,0.293C1.105,0.48 1,0.735 1,1L1,18C1,18.53 1.211,19.039 1.586,19.414C1.961,19.789 2.47,20 3,20L25,20C25.53,20 26.039,19.789 26.414,19.414C26.789,19.039 27,18.53 27,18L27,1C27,0.735 26.895,0.48 26.707,0.293C26.52,0.105 26.265,0 26,0ZM25,18L3,18L3,3.274L13.324,12.738C13.508,12.907 13.75,13.001 14,13.001C14.25,13.001 14.492,12.907 14.676,12.738L25,3.274L25,18Z" fill="#737373"/>
</svg>
